<mxfile host="app.diagrams.net" modified="2023-10-12T12:02:04.425Z" agent="Mozilla/5.0 (Macintosh; Intel Mac OS X 10_15_7) AppleWebKit/537.36 (KHTML, like Gecko) Chrome/116.0.0.0 Safari/537.36" etag="dvrk4ZqN05LMTUU58ETr" version="22.0.4" type="github">
  <diagram name="第 1 页" id="NGioJXuHZD3I8VSq0RQc">
    <mxGraphModel dx="890" dy="585" grid="1" gridSize="10" guides="1" tooltips="1" connect="1" arrows="1" fold="1" page="1" pageScale="1" pageWidth="827" pageHeight="1169" math="0" shadow="0">
      <root>
        <mxCell id="0" />
        <mxCell id="1" parent="0" />
        <mxCell id="KeR786KVvSDlI-LjiggQ-5" style="edgeStyle=orthogonalEdgeStyle;rounded=1;orthogonalLoop=1;jettySize=auto;html=1;strokeWidth=2;labelBackgroundColor=none;strokeColor=#E07A5F;fontColor=default;shadow=1;" edge="1" parent="1">
          <mxGeometry relative="1" as="geometry">
            <mxPoint x="310" y="305" as="targetPoint" />
            <mxPoint x="154.28999999999996" y="305" as="sourcePoint" />
          </mxGeometry>
        </mxCell>
        <mxCell id="KeR786KVvSDlI-LjiggQ-3" value="" style="points=[[0.13,0.02,0],[0.5,0,0],[0.87,0.02,0],[0.885,0.4,0],[0.985,0.985,0],[0.5,1,0],[0.015,0.985,0],[0.115,0.4,0]];verticalLabelPosition=bottom;html=1;verticalAlign=top;aspect=fixed;align=center;pointerEvents=1;shape=mxgraph.cisco19.laptop;fillColor=#F2CC8F;strokeColor=none;labelBackgroundColor=none;fontColor=#393C56;rounded=1;shadow=1;" vertex="1" parent="1">
          <mxGeometry x="70" y="272" width="94.29" height="66" as="geometry" />
        </mxCell>
        <mxCell id="KeR786KVvSDlI-LjiggQ-6" style="edgeStyle=orthogonalEdgeStyle;rounded=1;orthogonalLoop=1;jettySize=auto;html=1;strokeWidth=2;labelBackgroundColor=none;strokeColor=#E07A5F;fontColor=default;shadow=1;" edge="1" parent="1">
          <mxGeometry relative="1" as="geometry">
            <mxPoint x="520" y="305" as="targetPoint" />
            <mxPoint x="690" y="305" as="sourcePoint" />
          </mxGeometry>
        </mxCell>
        <mxCell id="KeR786KVvSDlI-LjiggQ-7" value="" style="shape=curlyBracket;whiteSpace=wrap;html=1;rounded=1;labelPosition=left;verticalLabelPosition=middle;align=right;verticalAlign=middle;strokeWidth=2;labelBackgroundColor=none;fillColor=#F2CC8F;strokeColor=#E07A5F;fontColor=#393C56;shadow=1;" vertex="1" parent="1">
          <mxGeometry x="312" y="245" width="20" height="120" as="geometry" />
        </mxCell>
        <mxCell id="KeR786KVvSDlI-LjiggQ-8" value="" style="shape=curlyBracket;whiteSpace=wrap;html=1;rounded=1;flipH=1;labelPosition=right;verticalLabelPosition=middle;align=left;verticalAlign=middle;strokeWidth=2;labelBackgroundColor=none;fillColor=#F2CC8F;strokeColor=#E07A5F;fontColor=#393C56;shadow=1;" vertex="1" parent="1">
          <mxGeometry x="499" y="245" width="20" height="120" as="geometry" />
        </mxCell>
        <mxCell id="KeR786KVvSDlI-LjiggQ-10" value="&lt;font style=&quot;font-size: 18px;&quot;&gt;&lt;b&gt;JQuery.min.js&lt;/b&gt;&lt;/font&gt;" style="text;html=1;align=center;verticalAlign=middle;resizable=0;points=[];autosize=1;strokeColor=none;fillColor=none;labelBackgroundColor=none;fontColor=#393C56;rounded=1;shadow=1;" vertex="1" parent="1">
          <mxGeometry x="344" y="232" width="140" height="40" as="geometry" />
        </mxCell>
        <mxCell id="KeR786KVvSDlI-LjiggQ-11" value="&lt;span style=&quot;font-size: 18px;&quot;&gt;&lt;b&gt;logo.png&lt;br&gt;&lt;/b&gt;&lt;/span&gt;" style="text;html=1;align=center;verticalAlign=middle;resizable=0;points=[];autosize=1;strokeColor=none;fillColor=none;labelBackgroundColor=none;fontColor=#393C56;rounded=1;shadow=1;" vertex="1" parent="1">
          <mxGeometry x="364" y="280" width="100" height="40" as="geometry" />
        </mxCell>
        <mxCell id="KeR786KVvSDlI-LjiggQ-12" value="&lt;span style=&quot;font-size: 18px;&quot;&gt;&lt;b&gt;style.css&lt;br&gt;&lt;/b&gt;&lt;/span&gt;" style="text;html=1;align=center;verticalAlign=middle;resizable=0;points=[];autosize=1;strokeColor=none;fillColor=none;labelBackgroundColor=none;fontColor=#393C56;rounded=1;shadow=1;" vertex="1" parent="1">
          <mxGeometry x="364" y="325" width="100" height="40" as="geometry" />
        </mxCell>
        <mxCell id="KeR786KVvSDlI-LjiggQ-13" value="&lt;b&gt;&lt;font style=&quot;font-size: 13px;&quot;&gt;HTTP/2.0&lt;/font&gt;&lt;/b&gt;" style="text;html=1;align=center;verticalAlign=middle;resizable=0;points=[];autosize=1;strokeColor=none;fillColor=none;labelBackgroundColor=none;fontColor=#393C56;rounded=1;shadow=1;" vertex="1" parent="1">
          <mxGeometry x="180" y="272" width="80" height="30" as="geometry" />
        </mxCell>
        <mxCell id="KeR786KVvSDlI-LjiggQ-14" value="&lt;b&gt;&lt;font style=&quot;font-size: 13px;&quot;&gt;1 TCP/IP Connection&lt;/font&gt;&lt;/b&gt;" style="text;html=1;align=center;verticalAlign=middle;resizable=0;points=[];autosize=1;strokeColor=none;fillColor=none;labelBackgroundColor=none;fontColor=#393C56;rounded=1;shadow=1;" vertex="1" parent="1">
          <mxGeometry x="531" y="273" width="150" height="30" as="geometry" />
        </mxCell>
        <mxCell id="KeR786KVvSDlI-LjiggQ-16" value="" style="fontColor=#393C56;verticalAlign=top;verticalLabelPosition=bottom;labelPosition=center;align=center;html=1;outlineConnect=0;fillColor=#F2CC8F;strokeColor=#E07A5F;gradientDirection=north;strokeWidth=2;shape=mxgraph.networks.web_server;labelBackgroundColor=none;rounded=1;shadow=1;" vertex="1" parent="1">
          <mxGeometry x="690" y="249" width="105" height="105" as="geometry" />
        </mxCell>
      </root>
    </mxGraphModel>
  </diagram>
</mxfile>
